HIERARCHY
ROOT Hips
{
    OFFSET 0.000000 0.000000 0.000000
    CHANNELS 6 Xposition Yposition Zposition Zrotation Xrotation Yrotation
    JOINT Spine
    {
        OFFSET -0.000000 14.517291 0.000000
        CHANNELS 3 Zrotation Xrotation Yrotation
        JOINT Spine1
        {
            OFFSET -0.000000 37.558300 0.000000
            CHANNELS 3 Zrotation Xrotation Yrotation
            JOINT Neck
            {
                OFFSET -0.000000 37.404057 3.400369
                CHANNELS 3 Zrotation Xrotation Yrotation
                JOINT Head
                {
                    OFFSET -0.000000 24.785618 -3.540803
                    CHANNELS 3 Zrotation Xrotation Yrotation
                    End Site
                    {
                        OFFSET -0.000000 35.408028 0.000000
                    }
                }
            }
            JOINT LeftShoulder
            {
                OFFSET 6.992933 33.973492 -0.192664
                CHANNELS 3 Zrotation Xrotation Yrotation
                JOINT LeftArm
                {
                    OFFSET 21.527611 0.000000 0.000000
                    CHANNELS 3 Zrotation Xrotation Yrotation
                    JOINT LeftForeArm
                    {
                        OFFSET 56.353916 0.000000 0.000000
                        CHANNELS 3 Zrotation Xrotation Yrotation
                        JOINT LeftHand
                        {
                            OFFSET 47.774071 0.000000 0.000000
                            CHANNELS 3 Zrotation Xrotation Yrotation
                            End Site
                            {
                                OFFSET 26.556021 0.000000 0.000000
                            }
                        }
                    }
                }
            }
            JOINT RightShoulder
            {
                OFFSET -7.065357 33.973492 -0.192664
                CHANNELS 3 Zrotation Xrotation Yrotation
                JOINT RightArm
                {
                    OFFSET -21.527611 0.000000 0.000000
                    CHANNELS 3 Zrotation Xrotation Yrotation
                    JOINT RightForeArm
                    {
                        OFFSET -56.353916 0.000000 0.000000
                        CHANNELS 3 Zrotation Xrotation Yrotation
                        JOINT RightHand
                        {
                            OFFSET -47.774071 0.000000 0.000000
                            CHANNELS 3 Zrotation Xrotation Yrotation
                            End Site
                            {
                                OFFSET -26.556021 0.000000 0.000000
                            }
                        }
                    }
                }
            }
        }
    }
    JOINT LeftUpLeg
    {
        OFFSET 17.704014 0.000000 0.000000
        CHANNELS 3 Zrotation Xrotation Yrotation
        JOINT LeftLeg
        {
            OFFSET -0.000000 -81.181816 0.000000
            CHANNELS 3 Zrotation Xrotation Yrotation
            JOINT LeftFoot
            {
                OFFSET -0.000000 -62.821102 0.000000
                CHANNELS 3 Zrotation Xrotation Yrotation
                JOINT LeftToeBase
                {
                    OFFSET -0.000000 -11.507608 26.556021
                    CHANNELS 3 Zrotation Xrotation Yrotation
                    End Site
                    {
                        OFFSET -0.000000 0.000000 7.081605
                    }
                }
            }
        }
    }
    JOINT RightUpLeg
    {
        OFFSET -17.704014 0.000000 0.000000
        CHANNELS 3 Zrotation Xrotation Yrotation
        JOINT RightLeg
        {
            OFFSET -0.000000 -81.181816 0.000000
            CHANNELS 3 Zrotation Xrotation Yrotation
            JOINT RightFoot
            {
                OFFSET -0.000000 -62.821102 0.000000
                CHANNELS 3 Zrotation Xrotation Yrotation
                JOINT RightToeBase
                {
                    OFFSET -0.000000 -11.507608 26.556021
                    CHANNELS 3 Zrotation Xrotation Yrotation
                    End Site
                    {
                        OFFSET -0.000000 0.000000 7.081605
                    }
                }
            }
        }
    }
}
MOTION
Frames:    4
Frame Time:    0.008333
31.085587    143.706390    49.400555    2.859750    2.065343    -63.545071    -2.707654    1.775232    -5.084311    3.171547    1.289317    -1.746180    24.341173    8.897736    21.857212    -21.519369    4.775261    19.030941    16.786875    0.755557    -24.204283    -5.592945    -15.191173    -43.504883    2.190261    2.154042    -87.081238    1.898421    3.707321    -31.000620    -5.311896    -2.530325    -7.926029    29.842056    -25.397156    43.936409    13.514675    -26.809942    111.175034    27.874136    -35.604240    37.667713    38.333340    -22.645620    32.329288    -34.812786    45.686291    8.527653    3.506410    -15.342400    44.305191    0.000000    0.000000    0.000000    -31.795418    -15.024091    -16.283266    3.945206    34.952812    -5.777884    20.093006    -10.198413    7.618505    0.000000    0.000000    0.000000    
31.012062    143.716537    49.413090    2.870894    2.077040    -63.516346    -2.623464    1.729107    -4.991414    3.110322    1.272229    -1.713223    24.313116    8.928052    21.809959    -21.573772    4.780034    18.985624    16.672966    0.820128    -23.960222    -5.423278    -15.164133    -42.561550    2.225531    2.192442    -86.944565    1.950838    3.737590    -32.207134    -5.356461    -2.467594    -7.968163    29.872849    -25.422337    43.926025    13.515043    -26.748898    111.163162    27.767904    -35.579327    37.657875    38.336063    -22.650475    32.315052    -34.800495    45.686565    8.538537    3.463659    -15.357484    44.275585    0.000000    0.000000    0.000000    -31.787067    -14.986989    -16.311672    3.945122    34.944851    -5.788648    20.098320    -10.212138    7.629806    0.000000    0.000000    0.000000    
30.935551    143.728592    49.426414    2.889242    2.092569    -63.491283    -2.542606    1.673213    -4.904491    3.068758    1.258111    -1.682557    24.237726    8.958705    21.764643    -21.593657    4.771460    18.946634    16.537760    0.867383    -23.741005    -5.201513    -15.074230    -41.517632    2.293102    2.161376    -86.781654    1.981686    3.734223    -33.347885    -5.436738    -2.415393    -8.002226    29.941923    -25.445675    43.924667    13.538101    -26.667860    111.166397    27.749416    -35.551292    37.610325    38.343338    -22.651466    32.314743    -34.794765    45.683559    8.531351    3.438641    -15.374069    44.266434    0.000000    0.000000    0.000000    -31.778391    -14.958856    -16.349295    3.946038    34.939297    -5.804365    20.101803    -10.221895    7.637562    0.000000    0.000000    0.000000    
30.862772    143.741913    49.442715    2.909501    2.100771    -63.470226    -2.465636    1.625144    -4.814827    3.019875    1.240427    -1.650917    24.173439    8.980137    21.708509    -21.617821    4.772343    18.894573    16.421320    0.894819    -23.557852    -5.000147    -14.937801    -40.437584    2.377318    2.091874    -86.572968    2.071955    3.685426    -34.554070    -5.520578    -2.395282    -8.019519    29.985632    -25.427534    43.875820    13.554152    -26.626825    111.194519    27.776430    -35.544891    37.564091    38.336407    -22.651644    32.307636    -34.768055    45.676041    8.499817    3.404401    -15.393774    44.270145    0.000000    0.000000    0.000000    -31.779022    -14.929624    -16.375021    3.949635    34.925713    -5.819827    20.109875    -10.226614    7.656655    0.000000    0.000000    0.000000    
